<svg width="23" height="23" viewBox="0 0 23 23" fill="none" xmlns="http://www.w3.org/2000/svg">
<path d="M20.1248 3.83333H17.154C16.9316 2.75177 16.3431 1.77996 15.4877 1.08169C14.6323 0.383419 13.5624 0.00139392 12.4582 0L10.5415 0C9.43731 0.00139392 8.36735 0.383419 7.51197 1.08169C6.65659 1.77996 6.0681 2.75177 5.84567 3.83333H2.87484C2.62067 3.83333 2.37692 3.9343 2.19719 4.11402C2.01747 4.29374 1.9165 4.5375 1.9165 4.79166C1.9165 5.04583 2.01747 5.28959 2.19719 5.46931C2.37692 5.64903 2.62067 5.75 2.87484 5.75H3.83317V18.2083C3.83469 19.4787 4.34002 20.6966 5.2383 21.5949C6.13658 22.4931 7.35448 22.9985 8.62484 23H14.3748C15.6452 22.9985 16.8631 22.4931 17.7614 21.5949C18.6597 20.6966 19.165 19.4787 19.1665 18.2083V5.75H20.1248C20.379 5.75 20.6228 5.64903 20.8025 5.46931C20.9822 5.28959 21.0832 5.04583 21.0832 4.79166C21.0832 4.5375 20.9822 4.29374 20.8025 4.11402C20.6228 3.9343 20.379 3.83333 20.1248 3.83333ZM10.5415 1.91667H12.4582C13.0526 1.91739 13.6323 2.10198 14.1176 2.44513C14.603 2.78828 14.9704 3.27318 15.1693 3.83333H7.83038C8.02931 3.27318 8.39666 2.78828 8.88204 2.44513C9.36743 2.10198 9.94708 1.91739 10.5415 1.91667ZM17.2498 18.2083C17.2498 18.9708 16.9469 19.7021 16.4078 20.2413C15.8686 20.7804 15.1373 21.0833 14.3748 21.0833H8.62484C7.86234 21.0833 7.13107 20.7804 6.59191 20.2413C6.05274 19.7021 5.74984 18.9708 5.74984 18.2083V5.75H17.2498V18.2083Z" fill="#FF0000"/>
<path d="M9.58333 17.2497C9.8375 17.2497 10.0813 17.1487 10.261 16.969C10.4407 16.7893 10.5417 16.5455 10.5417 16.2913V10.5413C10.5417 10.2872 10.4407 10.0434 10.261 9.8637C10.0813 9.68397 9.8375 9.58301 9.58333 9.58301C9.32917 9.58301 9.08541 9.68397 8.90569 9.8637C8.72597 10.0434 8.625 10.2872 8.625 10.5413V16.2913C8.625 16.5455 8.72597 16.7893 8.90569 16.969C9.08541 17.1487 9.32917 17.2497 9.58333 17.2497Z" fill="#FF0000"/>
<path d="M13.4168 17.2497C13.671 17.2497 13.9148 17.1487 14.0945 16.969C14.2742 16.7893 14.3752 16.5455 14.3752 16.2913V10.5413C14.3752 10.2872 14.2742 10.0434 14.0945 9.8637C13.9148 9.68397 13.671 9.58301 13.4168 9.58301C13.1627 9.58301 12.9189 9.68397 12.7392 9.8637C12.5595 10.0434 12.4585 10.2872 12.4585 10.5413V16.2913C12.4585 16.5455 12.5595 16.7893 12.7392 16.969C12.9189 17.1487 13.1627 17.2497 13.4168 17.2497Z" fill="#FF0000"/>
</svg>
